<svg id="Calque_1" data-name="Calque 1" xmlns="http://www.w3.org/2000/svg" viewBox="0 0 420.94 595.28"><defs><style>.cls-1{fill:#303030;}.cls-2,.cls-3{fill:none;stroke-miterlimit:10;}.cls-2{stroke:#282828;}.cls-3{stroke:#f1f2f2;}</style></defs><title>vecteur_fleche</title><rect class="cls-1" width="420.94" height="595.28"/><path class="cls-2" d="M91.47,139a112.79,112.79,0,0,1-11.15-8.62q0-3.84,0-7.82a118,118,0,0,0,10.39,7.25q.09-12,0-24c-3.47-1.31-6.94-2.84-10.41-4.56l-.06-7.57q5.57,2.31,11.14,4c0-2.23-.07-4.47-.1-6.71-.16-9.74-.3-19.47-.37-29.21q-12.66-.34-25.33-1,0,10.49,0,21,0,17.31,0,34.63c8.07,8.38,16.2,16.55,25.85,23.13Z"/><path class="cls-2" d="M107.19,121.91l1.14.25q.35,13,.63,26.07a61.75,61.75,0,0,0,21,3.2c.32-18.94.5-37.85-.26-56.78-.42-10.86-.78-21.7-1-32.56q-6.45,0-12.9,0C116.1,83.54,117,105,117,126.44l-.91-.12c-.74-21.44-2.38-42.83-3.4-64.25Q103,62,93.26,61.74q.12,14.87.4,29.73.41,24.77.19,49.51A72.72,72.72,0,0,0,107,147.53Q107.15,134.72,107.19,121.91Z"/><path class="cls-2" d="M158,146.12c.11-6,.19-12.66.22-20.41-1.85,3.38-4.48,5.91-6.81,6.55-2.83.79-3.89-1.2-3.83-9.83s1.07-8.76,3.9-9.4a8.23,8.23,0,0,1,6.78,1.7c-.29-17.16-1.37-34.3-1.78-51.46-3.49-3.6-6.09-5-9-4.89-20.75.82-15.23,54.13-15.28,66.75,0,8.73-.1,17.48.18,26.22A91.68,91.68,0,0,0,158,146.12Z"/><path class="cls-2" d="M193.56,129.49a177.2,177.2,0,0,0,.52-21.54c-.64-11.93-1.69-49.16-19.75-49.57C154.68,57.93,160,108.1,160,119c0,8.77-.12,17.61.16,26.41C171.67,141.14,182.54,134.94,193.56,129.49Z"/><path class="cls-2" d="M225.8,110.49c3-7.66,2.52-16.55,1.5-24.47-1.19-9.22-1.85-26.31-15.21-25.71q-9.59.22-19.16.49c.14,7.74.74,15.53,1.44,23.24,1.32,14.75,1.86,29.39,1.74,44.2,10-4.9,20.08-9.57,30.28-14.11C226.2,112.84,226,111.59,225.8,110.49Z"/><path class="cls-2" d="M257.05,102.42q-5.49,1.88-11,3.84c-.12-1.93-.27-3.88-.43-5.83q5.08-1.7,10.16-3.32c-.53-5.22-1.18-10.44-1.79-15.33q-5,1.22-10.07,2.48c-.22-1.87-.44-3.71-.64-5.5q5.41-1.16,10.84-2.26c-.16-1.31-.31-2.59-.46-3.82-.63-5.3-1.07-9.85-1.16-13.23q-12.66.24-25.32.51c.11,4.9.64,10.82,1.32,17.31,1.25,11.54,2.55,23.09,2.95,34.7,8.52-3.19,17.05-6.25,25.64-9.24Z"/><path class="cls-2" d="M298.81,91.83q-.09-3.08-.44-6.6c-.59-5.91-1.2-11.47-1.62-16.18-.35-3.89-.58-7.22-.62-9.83h-14c.35,8.78,1.62,17.59,2.64,26.31.56,5,.37,6.67-.68,6.9S282.58,91.08,282,86c-1.06-8.88-2.38-17.85-2.75-26.8l-14.36,0c.08,2.81.48,6.75,1.06,11.51.71,5.76,1.69,12.71,2.57,19.92.34,2.85.7,5.48,1.06,7.86A199.44,199.44,0,0,1,298.81,91.83Z"/><path class="cls-2" d="M312.9,80.75l1.09.08c.54,3.45,1.09,7.07,1.59,10.72a70.77,70.77,0,0,1,19.75,4.35c-.27-8-.67-16-1-24-.18-4.46-.3-8.62-.32-12.35q-6.43-.14-12.89-.22c.11,7.82.67,15.66,1.23,23.45l-.86-.13c-1.13-7.78-2.35-15.56-3.41-23.35q-9.73-.1-19.47-.13c.05,2.64.27,6,.6,9.82.69,7.52,1.5,15,2.15,22.55a90.87,90.87,0,0,1,12.35-.17C313.47,87.79,313.18,84.19,312.9,80.75Z"/><path class="cls-2" d="M336.87,59.66c0,3.93.13,8.25.29,12.85.3,8.17.66,16.33.9,24.5,9.83,5.14,16.18,10.15,24.13,18v-.33a73.66,73.66,0,0,0-10.39-9.8c0-1.71,0-3.43-.05-5.14a72.77,72.77,0,0,1,9.7,8.19q0-8.28,0-16.55a76.78,76.78,0,0,0-9.9-5.9c0-1.68-.05-3.36-.07-5a83.91,83.91,0,0,1,10.72,5.45V60.64C353.76,60.15,345.31,59.84,336.87,59.66Z"/><path class="cls-2" d="M89,232.79q-.06-4-.12-8.06c-.15-11.47-.12-22.93-.07-34.39q.15-19.31.34-38.63a209.75,209.75,0,0,1-20.41-21L68.64,164q0,11.86,0,23.71c0,4.44-.65,4.9-2.15,2-.48-.91-1.45-2.95-2-4.46V224.7c6.66,9.64,13.47,18.64,23,25.65C88.63,246.8,89.1,241.23,89,232.79Z"/><path class="cls-2" d="M120.3,162.8a19.83,19.83,0,0,0-5.65-2.28A16.76,16.76,0,0,0,109,160c-14,1.52-16,22.84-17.24,33.08a187.54,187.54,0,0,0-1.12,24.48c0,3.12.08,6.12.27,8.88.7,10,1.73,20.21,6,29.59,12.49,5,23.23,6.71,36.65,6.42,4.2-7,4.29-16.32,4.19-24.15,0-2.68-.08-5.67-.18-8.92-.25-8.31-.59-16.8-1.32-24.95C135,191.18,133.49,170.94,120.3,162.8Z"/><path class="cls-2" d="M163.67,191.56c-.15,10.67-.08,21.26.24,31.92.07,1.87.12,3.44.14,4.78.08,5.23-.37,7-1.6,7.63s-1.91-.66-2.33-5.57c-.11-1.26-.2-2.76-.27-4.58-.34-10.61-.41-21.16-.29-31.78.25-11.51.81-23,1.27-34.52a120,120,0,0,1-20.43,5.88c-.38,12.71-.76,25.42-1,38.13-.06,10.83,0,21.65.47,32.47,0,.66.07,1.28.1,1.9.36,7.82,1,16.2,5,23.16a139.49,139.49,0,0,0,35.59-13.08c2.8-10.35,2.74-21.73,2.6-32.31,0-.76,0-1.53,0-2.33-.15-11.22-.2-22.45.31-33.66.57-10.79,1.21-21.58,1.76-32.36-6.77,3.49-13.51,7-20.25,10.59C164.53,169.07,164,180.31,163.67,191.56Z"/><path class="cls-2" d="M206.54,216.89l1.76-1.1c.46,5.56.86,10.9,1.24,16.06Q219.74,226,229.87,220c-.63-8.94-1.62-17.82-2.68-26.71a50.26,50.26,0,0,0,2.4-7.9,210.92,210.92,0,0,0,3.64-25.81c.25-2.73.39-5.25.54-7.51.67-10.22-2.1-29.33-16.88-21q-14,7.06-28,14.24c-.56,10.74-1.21,21.46-1.82,32.19-.6,11.91-.49,23.83-.4,35.76q.18,15.55.43,31.11,9.34-5.08,19-10.59C206.25,228.44,206.41,222.8,206.54,216.89Z"/><path class="cls-2" d="M237,150.37c-1,10.56-1.75,20.95-2.09,31.56-.13,12.06-.63,24-1.63,36.07,6-3.53,12-7.13,18-10.81,1.17-12.33,1.68-24.56,1.9-36.94.15-3.79.4-7.31.7-10.68l1.61-.95c-.1,3.23-.16,6.61-.12,10.24.41,12,.49,23.88-.11,35.88a314.09,314.09,0,0,1,28-15c.82-12.5.7-25,1.5-37.51.75-8.86,1.7-17.69,2.5-26.54a147.33,147.33,0,0,0,.41-24,164.48,164.48,0,0,0-16.93,5.43,147.68,147.68,0,0,1-.94,26c-.71,6.6-1.64,13.1-2.36,20.34l-1.25.69c.28-7,.79-13.37,1.09-19.81a148.71,148.71,0,0,0-.65-25.67c-9.46,3.64-18.67,7.46-27.88,11.69C238.53,130.44,237.93,140.32,237,150.37Z"/><path class="cls-2" d="M324.55,125.38c0-.88.09-1.77.13-2.66.39-7.5.55-15.1.31-22.61-11.05-2.37-22.53-1.78-33.51.68a148.47,148.47,0,0,1-.35,23.67c-.74,8.73-1.65,17.45-2.37,26.18-.8,12.48-.66,25-1.41,37.49,12.8-4.09,22.22-5.15,35.3-1.78.33-9.88.54-19.73.59-29.61a38.76,38.76,0,0,0-15-2.12c.05-2.47.13-4.84.24-7.13a40.43,40.43,0,0,1,13.88,1.78c0-.43,0-.85,0-1.28.2-5.92.52-11.43.83-16.78a45.06,45.06,0,0,0-13.54-1.56c.15-2,.3-4,.43-6A46.78,46.78,0,0,1,324.55,125.38Z"/><path class="cls-2" d="M361.56,159.5c0-1.22,0-2.43,0-3.65q0-15.65,0-31.29c-9.7-10.75-19.16-19.72-33.49-23.68.21,7.59,0,15.25-.33,22.83-.4,8.63-.82,17.25-1.15,25.88-.32,12.72-.32,25.43-.71,38.15,15.54,8,25.76,22.08,35.62,36q0-12.08,0-24.13c-4.7-8.19-9.4-16.37-15.21-23.85,0-3.2,0-6.46,0-9,5.73,6.69,9.87,14.71,14.12,22.35v-1.59c0-7.41,0-14.49,0-21.62a96.52,96.52,0,0,0-13.87-19.57q.06-3.56.14-7.06C352.73,145.28,357.13,152.36,361.56,159.5Z"/><path class="cls-2" d="M81.48,251.58a84.09,84.09,0,0,1-15.87-17.45q0,16.5,0,33l0,33.21c0,3.8,0,7.6,0,11.38H81.05c7.28,0,11.83-1.74,14.49-6.45,2-3.56,3-9.29,3.32-18.06,0-1.44,0-2.83.06-4.12C99.08,269,92.31,260,81.48,251.58Z"/><path class="cls-2" d="M100.91,283.53c-.26,7.74-.59,15.73-.74,22.15,0,2.21-.07,4.24-.07,6.05h25.32c0-1.36,0-3,.11-5,.09-2.24.22-4.84.38-7.66-3.67,0-7.34-.12-11-.33.06-1.24.12-2.52.18-3.82,3.42.21,6.85.3,10.27.29.18-3.13.38-6.44.57-9.68,0-.56.06-1.12.1-1.67-3.47.11-6.92.08-10.38-.12.06-1.33.12-2.64.18-3.91a110.1,110.1,0,0,0,11.2,0c.27-5.41.35-8.92.22-13.1-9.11.35-17.44-1.55-26.12-4C101.25,269.71,101.17,275.83,100.91,283.53Z"/><path class="cls-2" d="M213.51,265.87c-.08,1.72-.1,3.57-.1,5.5l-1,.26c-.09-1.91-.16-3.72-.19-5.42q0-14.52.22-29-9.6,5.22-18.92,10c0,8.11,0,16.23-.34,24.33-.08,10.55,0,21.1,0,31.65,0,3.29,0,6.24,0,8.63h12.89c0-2.92-.09-6.36-.21-10.07-.41-10.22-.8-20.42-1-30.65l1-.26c.73,10.22,1.65,20.41,2.61,30.61.34,3.78.64,7.31.84,10.37h11.93c.19-3.62.19-7.67.09-11.9-.41-11-.86-22-.84-33l1-.26c.5,11,1.47,22,2.43,33,.32,4.3.54,8.45.54,12.22h13.12a131.92,131.92,0,0,0-.84-13.81c-1.53-12.69-3.79-25.46-3.3-38.29.49-11.9,1.37-23.73,2.49-35.59q-10.17,5.85-20.47,11.48Q214.35,250.7,213.51,265.87Z"/><path class="cls-2" d="M236,258.74c0,13.13,1.83,25.83,3.49,38.83a127.55,127.55,0,0,1,.92,14.16h25.32a109.79,109.79,0,0,0-1.52-17.19c-1-6.41-2.32-12.51-3.34-18.29-3.78.67-7,1.38-10.33,2.08-.41-2.45-.77-4.85-1.06-7.17,3.05-.72,5.88-1.43,9.44-2.2a110.46,110.46,0,0,1-.26-18.58c.05-1.15.12-2.28.19-3.4-3.65,1.22-6.53,2.58-9.62,3.86.13-2.55.3-5,.5-7.49a111.9,111.9,0,0,1,10.55-4.69c1.07-10.31,2.32-20.57,3.64-30.86-8.46,4.79-16.81,9.75-25.21,14.63C237.53,234.53,236.57,246.6,236,258.74Z"/><path class="cls-2" d="M293.06,267.68c2.37-8.37,2.78-17.41,3.24-26,.13-2.3.28-4.69.4-7.24.25-5.5,5-42.64-10.47-36.46a188.43,188.43,0,0,0-19.82,8.6C264.65,220.83,263,235,262,249.31c-.47,15.56,1.92,29.71,4.57,45a115,115,0,0,1,1.49,17.39h14.36a144.68,144.68,0,0,0-1.33-18.45c-.6-4.66-1.3-9.18-2-13.56l1.32-.14c1,4.37,2,8.89,2.87,13.57a145.51,145.51,0,0,1,2.48,18.58h15.24a186.09,186.09,0,0,0-2.79-19.15C296.65,284.26,294.74,276,293.06,267.68Z"/><path class="cls-2" d="M317.1,195a45.54,45.54,0,0,0-15.56-.72c-1.11,15.76-2.25,31.5-3,47.27-.42,17.25,1,33.87,2.74,51,.58,6.21,1,12.61,1,19.19h15.47c9.12,0,12.93-10.09,13.94-17.54,1.7-12.48,1.35-25.67,1.35-38.39,0-2.94,0-5.73,0-8.36C332.93,233.79,335.67,200,317.1,195Z"/><path class="cls-2" d="M335.17,248.36c-.08,15.52.62,31,1.31,46.46.22,5.55.38,11.19.38,16.91h25.33V286.47c-3.79-2-7.6-3.74-11.42-5.34,0-2.38-.1-4.76-.14-7.12q5.39,2.7,10.75,6,0-7.26,0-14.49V263c-3.62-3.13-7.25-6.05-10.86-8.67,0-2.37,0-4.73,0-7.08,3.87,3.13,7.75,6.66,11.65,10.47V232.44c-7.78-10.29-15.61-20.36-25.94-28.25C335.79,218.92,335.38,233.64,335.17,248.36Z"/><path class="cls-3" d="M88.63,136.11a111.06,111.06,0,0,1-11.14-8.61c0-2.57,0-5.17,0-7.83a114.55,114.55,0,0,0,10.38,7.26q.1-12,0-24.05a110.77,110.77,0,0,1-10.4-4.57q0-3.78-.07-7.57c3.71,1.54,7.43,2.89,11.15,4,0-2.23-.07-4.46-.11-6.71q-.24-14.6-.36-29.21-12.67-.33-25.33-1,0,10.5,0,21,0,17.33,0,34.63C70.84,121.84,79,130,88.63,136.59Z"/><path class="cls-3" d="M104.36,119.07l1.14.25q.33,13.05.62,26.08a62.07,62.07,0,0,0,21,3.2c.33-18.94.5-37.85-.25-56.79-.42-10.85-.79-21.69-1-32.55q-6.45,0-12.9,0c.32,21.46,1.23,42.89,1.26,64.35l-.9-.12c-.75-21.44-2.38-42.82-3.4-64.25q-9.74-.07-19.48-.32.12,14.86.41,29.73.4,24.75.19,49.5a71.81,71.81,0,0,0,13.13,6.56Q104.32,131.89,104.36,119.07Z"/><path class="cls-3" d="M155.17,143.28c.1-6,.18-12.65.22-20.4-1.85,3.38-4.48,5.9-6.81,6.55-2.84.79-3.9-1.2-3.83-9.84s1.07-8.75,3.89-9.39a8.22,8.22,0,0,1,6.79,1.7c-.3-17.17-1.37-34.3-1.79-51.46-3.49-3.61-6.08-5-9-4.9-20.75.83-15.22,54.14-15.28,66.76,0,8.73-.1,17.48.19,26.22A91.34,91.34,0,0,0,155.17,143.28Z"/><path class="cls-3" d="M190.72,126.66a175.3,175.3,0,0,0,.53-21.55c-.65-11.92-1.69-49.15-19.76-49.57-19.64-.45-14.34,49.72-14.35,60.62,0,8.77-.12,17.61.15,26.4C168.84,138.31,179.71,132.1,190.72,126.66Z"/><path class="cls-3" d="M223,107.65c3-7.66,2.52-16.55,1.5-24.46-1.18-9.23-1.84-26.31-15.2-25.71L190.09,58c.14,7.75.75,15.53,1.45,23.24,1.32,14.75,1.85,29.39,1.73,44.2,10-4.9,20.09-9.57,30.29-14.1C223.37,110,223.17,108.76,223,107.65Z"/><path class="cls-3" d="M254.22,99.59q-5.49,1.88-11,3.83c-.12-1.92-.27-3.87-.44-5.82q5.08-1.69,10.16-3.33c-.53-5.21-1.17-10.43-1.78-15.32q-5,1.2-10.08,2.47c-.21-1.87-.43-3.7-.64-5.49q5.43-1.16,10.85-2.26c-.16-1.31-.32-2.59-.46-3.83-.63-5.3-1.08-9.84-1.16-13.22q-12.66.23-25.32.51c.1,4.89.64,10.82,1.31,17.31,1.25,11.54,2.55,23.09,3,34.7,8.51-3.2,17-6.25,25.63-9.24C254.24,99.8,254.23,99.69,254.22,99.59Z"/><path class="cls-3" d="M296,89q-.09-3.06-.45-6.59c-.58-5.92-1.19-11.47-1.62-16.19-.35-3.89-.58-7.21-.62-9.83q-7,0-14,0c.35,8.79,1.62,17.6,2.64,26.32.56,5,.37,6.67-.67,6.9s-1.55-1.36-2.13-6.41c-1.06-8.88-2.39-17.85-2.76-26.8q-7.17,0-14.35,0c.07,2.8.47,6.75,1.06,11.5.71,5.76,1.69,12.71,2.56,19.92.35,2.86.7,5.49,1.06,7.86A200.87,200.87,0,0,1,296,89Z"/><path class="cls-3" d="M310.06,77.92l1.09.07c.55,3.46,1.1,7.08,1.6,10.73a70.83,70.83,0,0,1,19.75,4.34c-.28-8-.67-16-1-23.94-.17-4.47-.29-8.62-.31-12.36q-6.45-.13-12.89-.21c.1,7.81.66,15.66,1.23,23.45l-.86-.13c-1.14-7.79-2.36-15.56-3.41-23.36q-9.74-.1-19.47-.12c0,2.63.26,6,.6,9.81.68,7.52,1.49,15,2.14,22.56a90.9,90.9,0,0,1,12.35-.17C310.63,85,310.34,81.35,310.06,77.92Z"/><path class="cls-3" d="M334,56.83c0,3.92.13,8.24.29,12.85.3,8.16.66,16.33.9,24.49,9.84,5.15,16.18,10.15,24.13,18v-.34A74.84,74.84,0,0,0,349,102c0-1.71,0-3.42,0-5.13a72.72,72.72,0,0,1,9.71,8.18q0-8.27,0-16.55a75.92,75.92,0,0,0-9.89-5.89c0-1.69,0-3.37-.08-5a80.78,80.78,0,0,1,10.72,5.45V57.81C350.93,57.31,342.47,57,334,56.83Z"/><path class="cls-3" d="M86.12,230q-.06-3.94-.11-8.06c-.16-11.46-.12-22.92-.07-34.38q.14-19.32.34-38.63a207.58,207.58,0,0,1-20.41-21l-.06,33.26q0,11.85,0,23.71c0,4.43-.64,4.89-2.15,2-.48-.92-1.45-3-2-4.46v39.43c6.66,9.64,13.47,18.64,23,25.66C85.8,244,86.26,238.39,86.12,230Z"/><path class="cls-3" d="M117.47,160a20.18,20.18,0,0,0-5.66-2.28,16.71,16.71,0,0,0-5.69-.48c-14,1.51-16,22.83-17.25,33.08a187.39,187.39,0,0,0-1.12,24.47c0,3.12.08,6.13.28,8.89.69,10,1.73,20.21,6,29.59,12.5,5,23.23,6.71,36.66,6.41,4.19-7,4.28-16.31,4.18-24.14,0-2.69-.07-5.68-.17-8.93-.26-8.31-.6-16.8-1.32-24.94C132.16,188.34,130.65,168.1,117.47,160Z"/><path class="cls-3" d="M160.83,188.73c-.15,10.67-.08,21.26.24,31.92.08,1.87.13,3.43.15,4.77.07,5.23-.37,7-1.61,7.63s-1.9-.66-2.32-5.57c-.11-1.26-.2-2.75-.28-4.57-.33-10.62-.41-21.16-.28-31.78.25-11.51.8-23,1.27-34.52a121.71,121.71,0,0,1-20.44,5.88c-.38,12.71-.75,25.41-1,38.12-.06,10.84,0,21.65.48,32.48,0,.65.07,1.28.1,1.9.36,7.82,1,16.19,5,23.15a138.47,138.47,0,0,0,35.59-13.08c2.81-10.35,2.75-21.73,2.6-32.31,0-.76,0-1.53,0-2.32-.15-11.23-.2-22.45.31-33.67.57-10.79,1.21-21.57,1.76-32.36q-10.16,5.25-20.26,10.6C161.7,166.24,161.12,177.48,160.83,188.73Z"/><path class="cls-3" d="M203.7,214.06l1.77-1.1c.45,5.56.86,10.9,1.24,16q10.2-5.85,20.33-11.83c-.63-8.93-1.62-17.82-2.69-26.71a48.61,48.61,0,0,0,2.4-7.9,210.78,210.78,0,0,0,3.65-25.8c.24-2.74.39-5.26.54-7.51.66-10.22-2.11-29.34-16.88-21q-14,7.08-28,14.25c-.55,10.73-1.21,21.45-1.82,32.18-.6,11.92-.48,23.84-.4,35.77q.18,15.56.43,31.1,9.36-5.07,19-10.58C203.42,225.6,203.58,220,203.7,214.06Z"/><path class="cls-3" d="M234.17,147.53c-1,10.57-1.74,20.95-2.09,31.56-.13,12.06-.62,24-1.63,36.07q9-5.29,18-10.81c1.16-12.33,1.67-24.55,1.89-36.94.15-3.78.4-7.31.7-10.68l1.61-.95c-.1,3.24-.15,6.62-.11,10.24.4,12,.48,23.88-.12,35.89a314.26,314.26,0,0,1,28.06-15c.82-12.51.69-25,1.5-37.52.74-8.85,1.7-17.68,2.5-26.53a147.33,147.33,0,0,0,.41-24A161.32,161.32,0,0,0,268,104.28a148.65,148.65,0,0,1-1,26c-.7,6.59-1.64,13.1-2.36,20.34l-1.24.69c.28-7,.78-13.37,1.09-19.82a149.74,149.74,0,0,0-.65-25.67c-9.46,3.65-18.67,7.46-27.89,11.69C235.69,127.6,235.09,137.49,234.17,147.53Z"/><path class="cls-3" d="M321.71,122.55c.05-.89.09-1.77.13-2.66.4-7.51.56-15.11.32-22.62-11.06-2.37-22.54-1.78-33.51.69a150.87,150.87,0,0,1-.35,23.67c-.74,8.73-1.66,17.44-2.37,26.18-.81,12.48-.66,25-1.42,37.48,12.8-4.09,22.22-5.14,35.31-1.78q.48-14.81.59-29.61a38.78,38.78,0,0,0-15-2.11c0-2.47.13-4.85.23-7.14a40.68,40.68,0,0,1,13.88,1.79c0-.43,0-.86,0-1.28.21-5.93.53-11.43.83-16.79a45.34,45.34,0,0,0-13.54-1.55c.16-2,.3-4,.44-6A47,47,0,0,1,321.71,122.55Z"/><path class="cls-3" d="M358.73,156.67V153q0-15.65,0-31.29C349.05,111,339.6,102,325.27,98c.2,7.59,0,15.25-.33,22.84-.41,8.62-.83,17.24-1.16,25.87-.32,12.72-.32,25.44-.71,38.16,15.54,8,25.76,22.07,35.63,36q0-12.06,0-24.12c-4.71-8.19-9.41-16.37-15.21-23.86,0-3.2,0-6.45,0-9,5.73,6.69,9.87,14.71,14.11,22.36v-1.6c0-7.4,0-14.48,0-21.62a96,96,0,0,0-13.87-19.57q.07-3.56.14-7.05C349.9,142.44,354.3,149.53,358.73,156.67Z"/><path class="cls-3" d="M78.65,248.75a83.93,83.93,0,0,1-15.88-17.46q0,16.52,0,33l0,33.21v11.37H78.22c7.28,0,11.82-1.74,14.48-6.44,2-3.56,3-9.29,3.32-18.06,0-1.44,0-2.83.07-4.13C96.24,266.15,89.47,257.2,78.65,248.75Z"/><path class="cls-3" d="M98.07,280.69c-.26,7.74-.59,15.74-.73,22.15,0,2.21-.08,4.25-.08,6.05h25.32c0-1.36,0-3,.12-5,.08-2.25.21-4.84.37-7.67q-5.5,0-11-.33c.05-1.24.12-2.51.18-3.82q5.13.31,10.27.3c.18-3.14.38-6.45.57-9.69l.09-1.66q-5.19.17-10.37-.12c.06-1.33.12-2.64.17-3.92a104.61,104.61,0,0,0,11.2,0c.28-5.41.36-8.91.22-13.1-9.1.36-17.43-1.54-26.11-4C98.42,266.88,98.33,273,98.07,280.69Z"/><path class="cls-3" d="M210.67,263c-.07,1.72-.1,3.56-.1,5.5l-1,.25c-.1-1.9-.16-3.72-.19-5.41q0-14.53.21-29-9.59,5.21-18.91,9.95c0,8.1,0,16.23-.34,24.33-.09,10.55-.06,21.09,0,31.65,0,3.29,0,6.24.05,8.62h12.89c0-2.92-.09-6.35-.22-10.06-.4-10.22-.8-20.43-1-30.65l1-.27c.74,10.23,1.66,20.41,2.61,30.62.35,3.77.65,7.3.84,10.36h11.93c.2-3.61.19-7.66.09-11.9-.4-11-.85-22-.84-33l1-.26c.5,11,1.47,22,2.42,33,.32,4.29.55,8.44.55,12.21h13.12a134.51,134.51,0,0,0-.84-13.8c-1.53-12.69-3.8-25.46-3.31-38.29.49-11.9,1.37-23.74,2.5-35.59q-10.19,5.83-20.47,11.48Q211.5,247.87,210.67,263Z"/><path class="cls-3" d="M233.2,255.91c0,13.13,1.82,25.82,3.49,38.83a129.78,129.78,0,0,1,.91,14.15h25.32a108.7,108.7,0,0,0-1.52-17.19c-1-6.41-2.32-12.51-3.34-18.28-3.77.66-7,1.37-10.32,2.08-.41-2.46-.78-4.85-1.06-7.17,3-.73,5.87-1.44,9.44-2.2a110.53,110.53,0,0,1-.27-18.59c.06-1.14.12-2.27.19-3.39-3.64,1.21-6.52,2.58-9.62,3.85q.21-3.81.5-7.49c3.38-1.58,6.64-3.28,10.56-4.68,1.06-10.32,2.32-20.58,3.64-30.86-8.46,4.79-16.82,9.74-25.22,14.63C234.69,231.69,233.73,243.77,233.2,255.91Z"/><path class="cls-3" d="M290.23,264.84c2.36-8.36,2.77-17.4,3.24-26,.12-2.29.28-4.69.4-7.23.25-5.5,5-42.64-10.48-36.47a188.41,188.41,0,0,0-19.81,8.61c-1.77,14.23-3.39,28.4-4.38,42.71-.46,15.57,1.92,29.71,4.57,45a113.77,113.77,0,0,1,1.5,17.39h14.35a143,143,0,0,0-1.33-18.45c-.59-4.65-1.3-9.17-2-13.55l1.31-.14c1,4.36,2,8.89,2.87,13.56A145.73,145.73,0,0,1,283,308.89h15.24a183.77,183.77,0,0,0-2.8-19.15C293.81,281.42,291.9,273.16,290.23,264.84Z"/><path class="cls-3" d="M314.26,192.13a45.52,45.52,0,0,0-15.56-.71c-1.1,15.75-2.25,31.49-2.95,47.27-.41,17.24,1,33.86,2.74,51,.58,6.2,1,12.6,1,19.18H315c9.12,0,12.94-10.09,13.95-17.53,1.69-12.48,1.35-25.67,1.34-38.4,0-2.93,0-5.73,0-8.36C330.1,231,332.83,197.17,314.26,192.13Z"/><path class="cls-3" d="M332.33,245.53c-.08,15.52.63,31,1.31,46.46.22,5.55.39,11.18.39,16.9h25.32V283.63c-3.79-1.94-7.59-3.74-11.42-5.34q-.07-3.57-.14-7.11c3.6,1.79,7.18,3.79,10.75,6q0-7.26,0-14.5v-2.49c-3.63-3.14-7.25-6-10.86-8.67q0-3.57,0-7.09c3.86,3.14,7.75,6.66,11.64,10.47V229.6c-7.77-10.29-15.61-20.35-25.94-28.24C333,216.08,332.55,230.8,332.33,245.53Z"/></svg>