<svg id="Calque_1" data-name="Calque 1" xmlns="http://www.w3.org/2000/svg" viewBox="0 0 512.96 572.01"><defs><style>.cls-1{fill:#fff;}.cls-2{fill:#231f20;}.cls-3{fill:#3a3a3a;}.cls-4{fill:#f4f4f4;stroke:#231f20;stroke-linejoin:round;stroke-width:5px;}</style></defs><title>vecteur_fleche</title><path class="cls-1" d="M113.12,495.6A279.9,279.9,0,0,1,146.47,438v-9.65l-17.54-4.94-13.11,13.47a152.36,152.36,0,0,0-26.44,49.35"/><path class="cls-2" d="M115.28,496.86a291.31,291.31,0,0,1,16.35-32.2c3.07-5.19,6.33-10.27,9.73-15.25q2.5-3.68,5.12-7.26c.87-1.21,2.39-2.66,2.49-4.19,0-.3,0-.61,0-.91v-8.74a2.56,2.56,0,0,0-1.84-2.41L129.6,421a2.5,2.5,0,0,0-2.43.64L115,434.16a83,83,0,0,0-8.8,11.61,153.35,153.35,0,0,0-10.3,17.72,159.13,159.13,0,0,0-8.89,22c-1,3.07,3.85,4.39,4.83,1.33a150.43,150.43,0,0,1,17.47-36.75q2.74-4.2,5.77-8.21a37.82,37.82,0,0,1,3.08-3.82l6.64-6.83,5.95-6.11-2.43.64,17.53,4.94L144,428.31V438l.34-1.26a286.86,286.86,0,0,0-27,43.9Q114,487.4,111,494.34a2.58,2.58,0,0,0,.9,3.42,2.53,2.53,0,0,0,3.42-.9Z"/><path class="cls-1" d="M78.73,207.1a7.83,7.83,0,0,0,3,5.76c5.2,4.39,13,3.43,19.43,1.24,8-2.7,18.66-4.26,23.43-15.78a13.88,13.88,0,0,0-.86-12.72,13,13,0,0,0-1.55-2,2.83,2.83,0,0,0-1.79-1.08A2.35,2.35,0,0,0,119,183h0a8.33,8.33,0,0,0-.67.5c-7.48,6.06-15.28,12.4-24.68,14.45-3.11.69-6.36.89-9.31,2.12a10.78,10.78,0,0,0-3.75,2.62A6.64,6.64,0,0,0,78.73,207.1Z"/><path class="cls-2" d="M76.23,207.1c.23,7.06,7.36,10.88,13.64,11.3,5.55.38,10.73-1.54,15.93-3.12,4.55-1.38,9.22-2.9,13.08-5.75,4.53-3.34,8.21-8.39,9.12-14a16.25,16.25,0,0,0-1.88-10.8c-1-1.63-2.3-3.47-4.08-4.26-1.59-.72-5.11-.35-5.43,1.9l1.15-1.5c-3.45,2.42-6.56,5.3-10,7.71A46.1,46.1,0,0,1,97,194.38c-4.18,1.5-8.73,1.54-12.87,3.1s-7.71,5-7.89,9.62c-.11,3.22,4.89,3.21,5,0,.15-3.92,5.09-5.26,8.16-5.85,2.19-.42,4.4-.7,6.56-1.3a39.58,39.58,0,0,0,5.66-2.08A57.21,57.21,0,0,0,112,191.63c1.65-1.21,3.26-2.46,4.86-3.73l2.3-1.85c.77-.62,2.14-1.34,2.29-2.41l-1.15,1.5c1-.56-.3.14-.17-.12,0,0,.54.58.33.35a12.4,12.4,0,0,1,.92,1.14,10.82,10.82,0,0,1,1.56,3.44,12,12,0,0,1-.43,7,18.28,18.28,0,0,1-7.4,9.18A39.18,39.18,0,0,1,105,210.29c-4,1.21-7.94,2.79-12.11,3.1a15.17,15.17,0,0,1-7.1-.92c-2.17-.93-4.5-2.83-4.58-5.37C81.13,203.89,76.13,203.87,76.23,207.1Z"/><path class="cls-1" d="M19.82,146.6a82.53,82.53,0,0,0,20.81,16.89c.9,13.36,10.86,23.66,21.24,32.12a31.41,31.41,0,0,0,18.74,7.07,10.78,10.78,0,0,1,3.75-2.62c3-1.23,6.2-1.43,9.31-2.12,9.4-2.05,17.2-8.39,24.68-14.45a8.33,8.33,0,0,1,.67-.5h0c6.86-8.7,7.67-22,1.89-31.49a4.5,4.5,0,0,1-.88-2.12,4.06,4.06,0,0,1,.75-2.11c2.42-4.09,5.44-7.95,6.71-12.54s.23-10.3-3.91-12.65a10.19,10.19,0,0,0-8.67-.17,26,26,0,0,0-7.37,5.06l-.4.36A175.59,175.59,0,0,0,110.65,90c-.11-6.09-1.79-13.7-7.74-15-2.91-.63-6,.64-8.23,2.59-5.55,4.78-6.88,12.71-7.87,20L82.1,132.3c-10.33-13-11.56-32.17-23.72-43.52-2-1.89-4.48-3.56-7.25-3.72-3.64-.2-7,2.41-8.67,5.68s-1.84,7.07-1.62,10.72c.94,15.45,8.57,29.59,16,43.15-11.88-2.4-20.72-15.16-32.82-14.38-3.41.21-7,1.89-8.24,5.09C14.33,139.25,17,143.46,19.82,146.6Z"/><path class="cls-2" d="M18.05,148.37a86.15,86.15,0,0,0,21.31,17.27l-1.23-2.15c1,14.21,11.15,25,21.66,33.64a34.19,34.19,0,0,0,20,8,3.57,3.57,0,0,0,3-1.16,8.35,8.35,0,0,1,2.06-1.43,19.45,19.45,0,0,1,5.42-1.48A47.31,47.31,0,0,0,101.23,198a57.29,57.29,0,0,0,10.58-6.28c1.71-1.25,3.38-2.55,5-3.86l2.3-1.85c.76-.61,2.14-1.36,2.29-2.41l-.64,1.11a31.21,31.21,0,0,0,3-33.25c-.44-.83-1.49-1.74-1.05-2.65.76-1.52,1.82-2.94,2.73-4.38a34,34,0,0,0,4.43-9.08c1.46-5.33.31-11.87-4.5-15.13-3.11-2.1-7.33-2.17-10.78-.92s-6.48,3.7-9.24,6.21l4.17,2.43A180.86,180.86,0,0,0,113,100.54a101.08,101.08,0,0,0,.07-12.67,24.13,24.13,0,0,0-2.6-9.87,10.64,10.64,0,0,0-8.34-5.66c-4.12-.36-8.13,2-10.77,5-5.25,6-6.21,14.16-7.24,21.73l-4.41,32.56,4.18-1.1c-4.73-6-7.41-13.39-10.19-20.43-2.91-7.34-6-14.75-11.27-20.75C59.58,86.12,56,83,51.53,82.6s-8.41,2.34-10.69,5.92c-2.57,4-2.8,9.19-2.44,13.83a65.8,65.8,0,0,0,2.72,14.11c3.17,10.36,8.39,20,13.59,29.41l2.83-3.67c-7.86-1.66-13.87-7.49-20.78-11.17a25.19,25.19,0,0,0-11.52-3.34c-4.23,0-9,1.59-11.16,5.46-3.06,5.37.4,11.15,4,15.22a2.53,2.53,0,0,0,3.54,0,2.55,2.55,0,0,0,0-3.54c-2-2.31-5.25-6.47-2.93-9.58,1.85-2.48,5.59-2.83,8.41-2.44,6.66.92,12.28,5.78,17.84,9.24a35.38,35.38,0,0,0,11.3,5A2.53,2.53,0,0,0,59,143.35c-4.29-7.79-8.61-15.64-11.67-24a72.34,72.34,0,0,1-3.42-12.59c-.69-4.1-1.19-8.65-.07-12.71.82-3,3.13-6.28,6.54-6.48,3.56-.21,6.58,3.13,8.7,5.6,4.57,5.31,7.27,12,9.81,18.44,3.11,7.86,6.15,15.76,11.41,22.46,1.1,1.39,3.94.68,4.18-1.1q1.81-13.35,3.62-26.69c.54-4,1-8,1.67-12a35.51,35.51,0,0,1,2.7-9.66c1.35-2.78,3.39-5.54,6.33-6.77a5.17,5.17,0,0,1,6.66,1.65,15.66,15.66,0,0,1,2.5,7.71,84.3,84.3,0,0,1,.08,11.24,172.55,172.55,0,0,1-3.34,28.2,2.53,2.53,0,0,0,4.18,2.44,24.88,24.88,0,0,1,6.66-4.78c2.26-1,5.22-1.27,7.3.27,3.56,2.63,2.95,8.14,1.44,11.71a56,56,0,0,1-4.56,7.86,15.25,15.25,0,0,0-2,3.82,6,6,0,0,0,1,4.78A25.45,25.45,0,0,1,122.23,167a27.08,27.08,0,0,1-1.59,8,22.47,22.47,0,0,1-1.74,3.72,20.64,20.64,0,0,1-1.17,1.85c-.37.54-1,1.14-1.12,1.79l1.15-1.5c-3,2.1-5.69,4.59-8.65,6.73a57.77,57.77,0,0,1-9.28,5.65,39.72,39.72,0,0,1-10.42,3c-3.92.68-7.75,1.74-10.57,4.72l1.77-.73c-11.19-.18-20.14-8.06-27.3-15.89A41.23,41.23,0,0,1,45,171.58a28,28,0,0,1-1.81-7.31,3.69,3.69,0,0,0-.8-2.55,10.41,10.41,0,0,0-2-1.27c-1.3-.78-2.59-1.6-3.84-2.45a80.52,80.52,0,0,1-15-13.17C19.44,142.43,15.91,146,18.05,148.37Z"/><path class="cls-1" d="M93.59,215.83l21.61-7.17c31.59,29.86,63.42,67.4,76.45,108.87,0,0,2.33,7.32-6.38,9.53l-.26.07A14.65,14.65,0,0,1,167.56,317c-5.19-17.23-15.49-32.85-27-46.83-13.86-16.8-33.67-37.07-46.94-54.33"/><path class="cls-2" d="M94.26,218.24,113.13,212l2.73-.91-2.43-.64a392.37,392.37,0,0,1,41.39,45.06C167.21,271.55,178.19,289,185.63,308a75.79,75.79,0,0,1,3.71,10.61c0,.13,0,.28.08.41.09.32,0-.67,0-.06s0,1,0,1.47c0,.34.09-.49,0-.14,0,.15,0,.3-.08.45s-.14.49-.21.74c-.14.43,0,.05,0,0a2.64,2.64,0,0,1-.18.38c-.07.12-.62.92-.35.6a7.16,7.16,0,0,1-4,2.26,11.68,11.68,0,0,1-5.45.15,12.49,12.49,0,0,1-8.53-6.77,63.92,63.92,0,0,1-2.21-6.42q-1.36-3.76-3-7.42a121.55,121.55,0,0,0-7.16-13.66,196.19,196.19,0,0,0-18.32-25c-13.08-15.5-27.23-30.07-40.05-45.8-1.4-1.72-2.78-3.44-4.13-5.2a2.58,2.58,0,0,0-3.42-.89,2.51,2.51,0,0,0-.9,3.42c12.81,16.63,27.45,31.73,41.18,47.58a219.34,219.34,0,0,1,19,24.68,129.8,129.8,0,0,1,7.94,14,119.73,119.73,0,0,1,5.7,14.63c2.95,8.92,12.72,14.23,21.76,11.16,3.41-1.16,6.45-3.62,7.19-7.3a11.38,11.38,0,0,0-.39-5.79c-6.43-20.09-16.92-38.72-29.22-55.78A368.88,368.88,0,0,0,122.4,212.1c-1.8-1.75-3.61-3.48-5.43-5.21a2.53,2.53,0,0,0-2.44-.64l-18.87,6.26-2.73.91c-3,1-1.74,5.83,1.33,4.82Z"/><path class="cls-2" d="M88.07,168c0-15.53,9.82-28.91,20.84-38.94,2.39-2.17-1.16-5.7-3.53-3.54C93.37,136.48,83,151.19,83.07,168c0,3.22,5,3.23,5,0Z"/><path class="cls-1" d="M440.19,182.37a7.81,7.81,0,0,1-3.8,5.28c-5.76,3.61-13.35,1.56-19.41-1.51-7.55-3.81-17.87-6.85-21-18.93a13.88,13.88,0,0,1,2.65-12.47,13.1,13.1,0,0,1,1.81-1.76,2.86,2.86,0,0,1,1.93-.81,2.32,2.32,0,0,1,1.31.64h0a6.57,6.57,0,0,1,.59.59c6.55,7.05,13.38,14.43,22.4,17.79,3,1.12,6.17,1.78,8.91,3.41a10.74,10.74,0,0,1,3.35,3.12A6.64,6.64,0,0,1,440.19,182.37Z"/><path class="cls-2" d="M437.78,181.71c-.82,4.74-6.82,5.78-10.79,5.22-4.39-.62-8.24-2.75-12.2-4.59-6.94-3.24-13.66-6.87-16.06-14.68a12.84,12.84,0,0,1-.22-7.49,10.5,10.5,0,0,1,1.66-3.35,12.78,12.78,0,0,1,1.42-1.52,5,5,0,0,0,.58-.48c.2-.38.15.06-.23-.24l-.73-1.77c0,1.31,1.07,2.11,1.88,3l2,2.12c1.43,1.51,2.88,3,4.37,4.46a60.48,60.48,0,0,0,9.44,7.68A48.44,48.44,0,0,0,430.16,175c3.36,1.11,8,3.11,7.53,7.38a2.51,2.51,0,0,0,2.5,2.5,2.56,2.56,0,0,0,2.5-2.5c.47-4.62-3.05-8.61-7-10.53s-8.08-2.62-11.86-4.66a47.25,47.25,0,0,1-9.68-7.19c-3-2.84-5.68-6.09-8.71-8.93l.74,1.76c0-2-2.39-3.22-4.16-3.14s-3.38,1.41-4.6,2.67a15.62,15.62,0,0,0-4.17,8.38c-.91,5.94,1.32,11.94,5.07,16.52,3,3.73,7.31,6.24,11.6,8.31,4.75,2.3,9.57,5,14.79,6a18.75,18.75,0,0,0,10.57-.62c3.43-1.39,6.63-4.11,7.29-7.93a2.58,2.58,0,0,0-1.75-3.08A2.52,2.52,0,0,0,437.78,181.71Z"/><path class="cls-1" d="M507.05,130.79a82.63,82.63,0,0,1-23,13.78c-2.78,13.1-14.09,21.89-25.56,28.81A31.41,31.41,0,0,1,439,177.73a10.74,10.74,0,0,0-3.35-3.12c-2.74-1.63-5.93-2.29-8.91-3.41-9-3.36-15.85-10.74-22.4-17.79a6.57,6.57,0,0,0-.59-.59h0c-5.56-9.58-4.48-22.91,2.57-31.44a4.52,4.52,0,0,0,1.17-2,4,4,0,0,0-.44-2.19c-1.82-4.39-4.27-8.64-4.88-13.36s1.23-10.23,5.66-12a10.18,10.18,0,0,1,8.61,1A25.93,25.93,0,0,1,423,99l.34.41a175.42,175.42,0,0,1,1.8-37.48c1-6,3.7-13.31,9.78-13.75,3-.21,5.82,1.48,7.78,3.73,4.82,5.51,5,13.55,5,20.88l-.24,35.08c12.07-11.44,16-30.21,29.62-39.73,2.27-1.59,4.94-2.9,7.7-2.66,3.64.31,6.62,3.37,7.79,6.84s.82,7.26.09,10.84c-3.11,15.17-12.66,28.09-22,40.46,12.1-.7,22.65-12.08,34.52-9.61,3.35.69,6.71,2.87,7.44,6.21C513.52,124.29,510.26,128.07,507.05,130.79Z"/><path class="cls-2" d="M505.28,129a81,81,0,0,1-15,10c-1.31.67-2.63,1.31-4,1.92s-3.59,1-4.35,2.35c-.64,1.09-.75,2.67-1.15,3.88a26.09,26.09,0,0,1-1.48,3.49c-4.66,9.11-13.45,15.43-22,20.55a29,29,0,0,1-18.28,4l2.16,1.24c-2.48-3.49-6.07-5.14-10-6.43a40.77,40.77,0,0,1-9.68-4.31,53.61,53.61,0,0,1-8.12-6.6c-2.7-2.59-5.08-5.52-7.81-8.07l.74,1.76c0-1.19-1-2.46-1.51-3.54a23.42,23.42,0,0,1-1.2-3.54,26.23,26.23,0,0,1-.83-7.38,26,26,0,0,1,4.45-14c.7-1,1.64-1.92,2.23-3a5.64,5.64,0,0,0,0-5c-1.16-2.82-2.59-5.54-3.61-8.42-1.44-4-2.21-9.86,1.63-12.93,2-1.61,4.85-1.35,7.06-.28,2.93,1.41,5.11,4,7.14,6.45,1.37,1.66,4.39.32,4.27-1.77a176.86,176.86,0,0,1,.3-25.11c.34-4.07.78-8.15,1.49-12.17a22.81,22.81,0,0,1,2.72-8,8.42,8.42,0,0,1,2.23-2.52,4.76,4.76,0,0,1,3.3-.9c3.17.29,5.52,3.15,6.88,5.78,3.27,6.34,2.42,14.39,2.37,21.27q-.11,15.08-.2,30.14a2.52,2.52,0,0,0,4.26,1.77c5.36-5.12,9.18-11.55,12.83-18C465.51,85.49,469,79.09,474,74c2.41-2.46,5.48-5.25,9-6,3.25-.65,6,1.87,7.11,4.76,1.54,4.14.47,8.9-.65,13a63.21,63.21,0,0,1-4.62,11.9c-4.44,8.82-10.38,16.77-16.29,24.63-1.13,1.5.39,3.88,2.16,3.76,7.6-.5,14.13-4.44,21-7.4a26.38,26.38,0,0,1,9.67-2.55c2.93-.07,6.58.61,8.3,3.25,2.34,3.59-1.82,7.5-4.31,9.64a2.51,2.51,0,0,0,0,3.53,2.54,2.54,0,0,0,3.53,0c3.33-2.85,6.83-6.89,6.42-11.6s-4.11-7.86-8.36-9.12c-8.27-2.47-16.42,1.87-23.7,5.28-3.95,1.85-8.11,3.68-12.52,4l2.16,3.77c5.61-7.47,11.24-15,15.6-23.31a73.24,73.24,0,0,0,5.46-13.18c1.41-4.74,2.44-9.83,1.56-14.76a13.17,13.17,0,0,0-7.69-10c-4.44-1.8-9.07.14-12.7,2.82-6.38,4.73-10.81,11.33-14.76,18.12-4.35,7.49-8.3,15.42-14.64,21.49l4.27,1.76q.09-14.57.2-29.15c.05-8,.77-16.8-2.8-24.28A15.8,15.8,0,0,0,439,46.29a10.12,10.12,0,0,0-10.23,2c-5.56,4.79-6.22,13.48-7,20.24a175.29,175.29,0,0,0-.88,30.9l4.26-1.76c-4.14-5-9.76-10.05-16.8-8.51-5.74,1.26-8.69,7.27-8.77,12.73a24.11,24.11,0,0,0,2.19,9.47c.66,1.58,1.37,3.14,2.07,4.7.28.62.57,1.23.83,1.86s.53.91.16,1.44c-.82,1.18-1.79,2.24-2.56,3.47a28,28,0,0,0-2.11,4.16,31.36,31.36,0,0,0-2.19,8.47,30.42,30.42,0,0,0,3.65,18.67l-.34-1.27c0,1.7,2.19,3.32,3.29,4.49,1.29,1.37,2.58,2.73,3.9,4a69.87,69.87,0,0,0,8.45,7.31,39.1,39.1,0,0,0,9.79,5.18c3.31,1.17,7.15,1.83,9.64,4.52.86.94,1.3,1.7,2.68,1.87a26.94,26.94,0,0,0,2.84.22,32.45,32.45,0,0,0,5.65-.44,34.47,34.47,0,0,0,10.72-3.57A76.86,76.86,0,0,0,475,164.39c5.49-5.21,9.87-11.68,11.51-19.15L484.73,147a87.45,87.45,0,0,0,24.08-14.43,2.5,2.5,0,0,0,0-3.53A2.53,2.53,0,0,0,505.28,129Z"/><path class="cls-3" d="M98.59,491.08a16.09,16.09,0,0,0-5.94-3.46,6.41,6.41,0,0,0-6.38,1.59c-1.15,1.32-1.52,3.19-2.72,4.45a9.56,9.56,0,0,1-1.9,1.43,25.06,25.06,0,0,0-8.68,9,15.55,15.55,0,0,0-1.26,12.23c1.39,3.95,4.58,6.95,7.69,9.75,6.09,5.49,12.33,10.87,17.52,17.21,2.93,3.57,5.54,7.48,9.09,10.44,1.66,1.38,3.74,2.59,5.85,2.18,2.91-.57,4.35-3.79,5.27-6.6a35.64,35.64,0,0,0,2-9c.47-9.26-5.61-17.81-5.72-27.08,0-2.63.43-5.29,0-7.89a17.61,17.61,0,0,0-2.44-5.94,19.53,19.53,0,0,0-4.93-5.76,10.09,10.09,0,0,0-7.15-2.09"/><path class="cls-3" d="M400.33,428.87c10.86,12.12,11.16,31.46,3.1,45.6s-23.07,23.34-38.84,27.37c-8.28,2.11-17.13,2.94-25.35.54s-15.67-8.43-18.16-16.62"/><path class="cls-2" d="M398.56,430.64c11.88,13.41,9.58,34.46-.85,47.94-5.57,7.21-13.18,12.65-21.39,16.48-9,4.2-19.45,6.89-29.45,6.17S326.61,495,323.49,485.1c-.95-3.06-5.78-1.76-4.82,1.33,3.1,9.9,12.22,16.74,22.12,18.93,11.14,2.46,23.12.08,33.57-4.06,9.36-3.72,18.14-9.22,24.87-16.78a47.73,47.73,0,0,0,12.08-27c1.11-10.88-1.9-22.12-9.21-30.38-2.14-2.41-5.67,1.13-3.54,3.54Z"/><path class="cls-3" d="M335,431.62l1.09-8.34L349.72,396H359c12.06,2.11,21.77,10.88,30.23,19.74,5,5.19,9.91,10.85,11.66,17.81,1.16,4.61.82,9.46.24,14.18-1.13,9.33-3.27,18.82-8.61,26.56-6.65,9.65-17.83,15.61-29.39,17.55s-23.5.17-34.7-3.26c-3.26-1-6.77-2.39-8.34-5.42-1.24-2.38-1-5.24-.56-7.9,1.15-7.47,3.17-15,7.25-21.31s10.44-11.53,17.87-12.91l-7.26-.09a45.62,45.62,0,0,1-2.68-11.14"/><path class="cls-2" d="M337.47,431.62l1.09-8.34-.34,1.26,12-23.92,1.69-3.39-2.15,1.24H359c-.56,0,.37.1.57.15,7.6,1.62,14.2,6,19.95,11.09,3,2.64,5.81,5.47,8.55,8.37a56.64,56.64,0,0,1,7.44,9.2,23.65,23.65,0,0,1,3.65,11.39,62.59,62.59,0,0,1-1.06,13c-1.31,8-3.62,16.1-8.64,22.6A39.79,39.79,0,0,1,372,486.83a55.83,55.83,0,0,1-24.49,3,81.23,81.23,0,0,1-13.22-2.28c-2.1-.53-4.2-1.1-6.25-1.79a13.66,13.66,0,0,1-4.28-2.1c-3.07-2.47-2-6.81-1.42-10.18a60.67,60.67,0,0,1,3.39-12.18c2.83-6.91,7.7-13.12,14.57-16.35a21,21,0,0,1,5-1.57c2.83-.55,2.09-4.88-.66-4.91l-7.26-.09,2.41,1.83a45,45,0,0,1-2.59-10.47,2.58,2.58,0,0,0-2.5-2.5,2.51,2.51,0,0,0-2.5,2.5,49.91,49.91,0,0,0,2.77,11.8,2.6,2.6,0,0,0,2.41,1.84l7.26.09L344,438.6c-8.2,1.6-15.08,7.3-19.48,14.24A48.59,48.59,0,0,0,319,465.58c-.62,2.18-1.1,4.39-1.5,6.61a36.33,36.33,0,0,0-.83,6.88,11.14,11.14,0,0,0,6.82,10.28,60.67,60.67,0,0,0,13.35,4c9.47,2,19.31,2.53,28.83.56a49.43,49.43,0,0,0,22.18-10.73c6.67-5.74,10.9-13.52,13.24-21.93a92.22,92.22,0,0,0,2.5-13.3c.61-5,.93-10.12-.31-15.06-2.15-8.58-8.69-15.31-14.74-21.41S375.89,399.56,368,396.13c-2.94-1.27-6.36-2.66-9.61-2.66h-8.65a2.47,2.47,0,0,0-2.16,1.24l-6.94,13.87L336,417.91a28,28,0,0,0-2.3,4.7,35.5,35.5,0,0,0-.62,4.71l-.56,4.3a2.51,2.51,0,0,0,2.5,2.5,2.57,2.57,0,0,0,2.5-2.5Z"/><path class="cls-4" d="M102.29,7.86A216.63,216.63,0,0,0,2.5,60.17,217.59,217.59,0,0,1,150.08,220.23a217.57,217.57,0,0,1-64.8,207.85,216.77,216.77,0,0,0,112.59,4.53c117.29-26.4,191-142.87,164.58-260.17S219.58-18.53,102.29,7.86Z"/><path class="cls-1" d="M241.37,231.16a19.76,19.76,0,0,0-2.91,6.42c-3.11-3.15-5.86-5.53-10.18-6.45a10.29,10.29,0,0,0-6.87,1,7.2,7.2,0,0,0-3.46,3.76l-1.35-.11a22,22,0,0,0-8.24-4.09,4.57,4.57,0,0,0-3.26.08c-1,.53-1.12,1.16-2.3,2.84.49-2.19,1.31-4.42,1.61-6.61a14.81,14.81,0,0,0-1.33-8.18,10.78,10.78,0,0,0-1.94-2.8,8.37,8.37,0,0,0-2.26-1.68,18.16,18.16,0,0,1,13.47-8.26c6.48-.67,13,1.93,18,6.19S239.07,225.07,241.37,231.16Z"/><path class="cls-2" d="M239.52,230.08a22.65,22.65,0,0,0-3.13,6.94l3.58-1c-3.23-3.26-6.87-6.27-11.53-7.08-5.11-.88-10.55,1.39-12.56,6.33l2.07-1.58-1.35-.11,1.51.63a23.8,23.8,0,0,0-9.59-4.74,6.21,6.21,0,0,0-4.9.65,11.62,11.62,0,0,0-2.67,3.35l3.91,1.65c.48-2.06,1.19-4.07,1.54-6.17a17.15,17.15,0,0,0,0-5.85c-.65-3.92-2.83-7.75-6.41-9.66l.77,2.93c3.59-5.74,10.7-8.26,17.22-7,7.06,1.4,12.56,6,16.3,12a59.06,59.06,0,0,1,5.05,10.32,2.2,2.2,0,0,0,2.64,1.5,2.16,2.16,0,0,0,1.49-2.63c-2.73-7.18-6.43-14.77-12.56-19.64-6.5-5.16-15.5-7.87-23.54-4.91a20.27,20.27,0,0,0-10.3,8.2,2.16,2.16,0,0,0,.77,2.93c2.73,1.47,4.13,4.47,4.5,7.46.39,3.27-.84,6.27-1.57,9.4a2.16,2.16,0,0,0,3.92,1.65c.39-.58.73-1.2,1.15-1.75-.12.15.22-.25.25-.27-.21.14.32-.1.39-.11,1.3-.23,3.25.71,4.41,1.22a21.25,21.25,0,0,1,4.23,2.51A5,5,0,0,0,218,238a2.19,2.19,0,0,0,2.06-1.58c1.34-3.29,5.87-3.83,8.84-3,3.27.95,5.75,3.24,8.09,5.61a2.16,2.16,0,0,0,3.58-.95,18.81,18.81,0,0,1,2.7-5.9C244.78,230,241.07,227.82,239.52,230.08Z"/><path class="cls-1" d="M203.08,219.81l-5.54-1.64a15.07,15.07,0,0,1,1.34-2.84,8.37,8.37,0,0,1,2.26,1.68A10.78,10.78,0,0,1,203.08,219.81Z"/><path class="cls-2" d="M203.65,217.75l-4.84-1.43-.7-.21,1.49,2.63c.1-.29.21-.57.33-.85l-.21.51a13.17,13.17,0,0,1,1-2l-2.93.76a8.13,8.13,0,0,1,1.28.81l-.43-.33a9.94,9.94,0,0,1,1.71,1.72L200,219a12.15,12.15,0,0,1,1.2,2,2.14,2.14,0,0,0,1.28,1,2.17,2.17,0,0,0,1.65-.22,2.2,2.2,0,0,0,.77-2.93,11.72,11.72,0,0,0-5-5.24,2.18,2.18,0,0,0-2.93.76,18,18,0,0,0-1.56,3.36,2.13,2.13,0,0,0,.22,1.65,2.25,2.25,0,0,0,1.28,1l4.83,1.43.71.21a2.15,2.15,0,0,0,2.63-1.5A2.18,2.18,0,0,0,203.65,217.75Z"/><path class="cls-2" d="M241.65,253.24c-.71-7.63-1.64-16.4,4-22.3a11.24,11.24,0,0,1,1.89-1.62c.35-.22.7-.41,1.05-.62,1-.59-.36,0,.19-.1.77-.17,1.62-.41,2.11-.45,1.9-.17,4.44-.16,5.64,1.6,1.54,2.26,5.26.12,3.7-2.17-1.92-2.81-5.14-3.87-8.44-3.77a12.29,12.29,0,0,0-8,3c-7.83,6.48-7.3,17.22-6.44,26.43a2.2,2.2,0,0,0,2.14,2.15,2.16,2.16,0,0,0,2.14-2.15Z"/><path class="cls-1" d="M198.88,215.33a8.37,8.37,0,0,1,2.26,1.68Z"/><path class="cls-2" d="M197.8,217.18a8.13,8.13,0,0,1,1.28.81l-.43-.33a8.86,8.86,0,0,1,1,.87l2.6-3.36-2-1.48-.28-.2a1.55,1.55,0,0,0-.8-.26,1.95,1.95,0,0,0-1.58.42,1.59,1.59,0,0,0-.55.6,2.17,2.17,0,0,0-.22,1.65l.22.52a2.08,2.08,0,0,0,.77.76l2,1.48.28.2a1.61,1.61,0,0,0,.79.26,1.68,1.68,0,0,0,.86,0l.51-.22a1.59,1.59,0,0,0,.6-.55,1.06,1.06,0,0,0,.27-.47,1.59,1.59,0,0,0,.19-.83l-.08-.56a2.07,2.07,0,0,0-.55-.95,12.6,12.6,0,0,0-1.47-1.25,7.32,7.32,0,0,0-1.22-.76,1.55,1.55,0,0,0-.8-.26,1.95,1.95,0,0,0-1.58.42,1.59,1.59,0,0,0-.55.6,2.17,2.17,0,0,0-.22,1.65A2.13,2.13,0,0,0,197.8,217.18Z"/><path class="cls-3" d="M238.46,237.59l-.5,2.55-.35,4.06a64,64,0,0,0-18.29.19c-3,.46-6,1.14-9,.83s-6.08-1.8-7.32-4.54a9.3,9.3,0,0,1-.23-6.06v0c1.18-1.68,1.33-2.31,2.3-2.84a4.57,4.57,0,0,1,3.26-.08,22,22,0,0,1,8.24,4.09c.38.3.74.61,1.1.93a5.56,5.56,0,0,1,.25-.82,7.2,7.2,0,0,1,3.46-3.76,10.29,10.29,0,0,1,6.87-1c4.32.92,7.07,3.3,10.18,6.45Z"/><path class="cls-2" d="M236.05,236.93a68.49,68.49,0,0,0-.94,7.27l2.5-2.5a66.35,66.35,0,0,0-11.09-.51,97.83,97.83,0,0,0-10.93,1.29c-2.81.44-5.92.67-8.45-.86a4.42,4.42,0,0,1-2-2.43c-.52-1.62.17-3,.17-4.59l-.35,1.27c.35-.51.69-1,1-1.53a1.78,1.78,0,0,1,.12-.18c.1-.16.41-.26.07-.11.88-.38,2.09.17,3,.46a19.72,19.72,0,0,1,6.82,4,2.53,2.53,0,0,0,4.18-1.1c.91-3.48,5.17-4.46,8.27-3.64,3.38.9,5.9,3.2,8.31,5.62l-.73-1.77h0c0,3.22,5,3.23,5,0,0-1.45-1.43-2.5-2.41-3.41a30.14,30.14,0,0,0-2.89-2.4,17.34,17.34,0,0,0-6.72-3.06c-5.56-1.14-12.11,1.47-13.65,7.32l4.17-1.1c-3.37-3-7.78-5.61-12.35-6a5.63,5.63,0,0,0-5.17,2.44,12.2,12.2,0,0,0-1.43,2.25c0,.11-.32,1.33-.22.87s-.09.36-.09.34a16.48,16.48,0,0,0-.28,2.21c-.27,4.76,2.76,8.43,7.1,10,4.53,1.62,9.33.24,13.92-.38a64.15,64.15,0,0,1,16.67,0c1.42.19,2.39-1.3,2.5-2.5s.22-2.42.32-3.64c0-.76.15.06-.05.21.1-.07.11-.54.13-.67l.36-1.84a2.58,2.58,0,0,0-1.75-3.08A2.53,2.53,0,0,0,236.05,236.93Z"/><path class="cls-1" d="M218,235.88a5.56,5.56,0,0,0-.25.82c-.36-.32-.72-.63-1.1-.93Z"/><path class="cls-2" d="M215.88,235.32a5.56,5.56,0,0,0-.25.82l3.58-.95c-.36-.32-.72-.63-1.1-.93l-1.51,3.66,1.18.09.17,0a1.55,1.55,0,0,0,.82-.19,1.58,1.58,0,0,0,.69-.44,2.45,2.45,0,0,0,.63-1.52l-.08-.56a2.07,2.07,0,0,0-.55-.95L219,234a2.1,2.1,0,0,0-1.08-.3l-1.18-.09-.17,0-.57.08-.51.22-.44.33a1.58,1.58,0,0,0-.44.69,1,1,0,0,0-.15.54,1.1,1.1,0,0,0,0,.57,1,1,0,0,0,.15.54,1.7,1.7,0,0,0,.44.69c.38.3.74.61,1.1.93a2.17,2.17,0,0,0,.95.55,2.13,2.13,0,0,0,2.08-.55,2.07,2.07,0,0,0,.55-.95,6,6,0,0,1,.25-.82,1.64,1.64,0,0,0,0-.85,1.67,1.67,0,0,0-.25-.8,2.46,2.46,0,0,0-1.28-1l-.57-.08a2,2,0,0,0-1.08.3l-.44.33A2.17,2.17,0,0,0,215.88,235.32Z"/><path class="cls-2" d="M214.35,186.75a7.41,7.41,0,0,0-9.17,1.06A4.22,4.22,0,0,0,204,190a4,4,0,0,0,2.29,3.9,11.62,11.62,0,0,0,4.68,1,14.57,14.57,0,0,0,6.48-.45c2-.79,3.76-2.84,3.42-5s-1.63-2.7-6.53-2.7"/><path class="cls-2" d="M215.43,184.9a9.6,9.6,0,0,0-10.27.16c-1.79,1.23-3.35,3.13-3.33,5.41a6.31,6.31,0,0,0,3.28,5.19,14.36,14.36,0,0,0,6.16,1.41,16.51,16.51,0,0,0,6.34-.41c3.51-1.13,6.45-4.76,5.14-8.57-1.2-3.5-5.32-3.48-8.4-3.49-2.75,0-2.76,4.28,0,4.29.68,0,1.36,0,2,0l.8,0,.4.05c-.44-.06,0,0,.07,0s.38.07.56.12.55.25.15,0a3.5,3.5,0,0,0,.42.24c-.29-.09-.3-.27,0,0-.28-.31-.13-.27,0,0-.11-.32-.11-.36,0,0a3.77,3.77,0,0,1,.1.43c-.07-.41,0,.38,0,.29a3.08,3.08,0,0,1-1.74,2.12,8.34,8.34,0,0,1-3.82.61,23.82,23.82,0,0,1-4.22-.37,3.63,3.63,0,0,1-2.75-1.6.93.93,0,0,1,0-.93,3.61,3.61,0,0,1,1-1.15c-.06.06-.26.18.12-.09l.39-.25c.13-.08.27-.15.41-.22a1,1,0,0,1,.23-.11,6.78,6.78,0,0,1,1-.3c.15,0,.3-.07.46-.09-.23,0,0,0,.12,0a5.07,5.07,0,0,1,3.34.8c2.34,1.48,4.49-2.22,2.16-3.69Z"/><path class="cls-1" d="M202.8,234.6v0h0S202.8,234.61,202.8,234.6Z"/><path class="cls-2" d="M200.66,234.6v0l2.14-2.14h0l2.14,2.14h0l-.08.57h0l-.21.51h0l-.34.43h0l.33-.44.22-.51s.08-.56.08-.58a1.55,1.55,0,0,0-.19-.82,1.89,1.89,0,0,0-1.13-1.13,1.55,1.55,0,0,0-.82-.19l-.57.08a2.17,2.17,0,0,0-.95.55l-.33.43a2.09,2.09,0,0,0-.29,1.08h0l.07-.57h0l.22-.51h0l.34-.43h0l-.34.44-.22.51s-.07.56-.07.57a1.58,1.58,0,0,0,.18.83,1.7,1.7,0,0,0,.44.69l.44.33a2.14,2.14,0,0,0,1.08.3h0a1.55,1.55,0,0,0,.82-.19,1.58,1.58,0,0,0,.69-.44l.34-.43a2.2,2.2,0,0,0,.29-1.09v0a1.55,1.55,0,0,0-.19-.82,1.89,1.89,0,0,0-1.13-1.13,1.55,1.55,0,0,0-.82-.19l-.57.08a2.17,2.17,0,0,0-.95.55l-.33.43A2.09,2.09,0,0,0,200.66,234.6Z"/><path class="cls-1" d="M218,235.88a5.56,5.56,0,0,0-.25.82c-.36-.32-.72-.63-1.1-.93Z"/><path class="cls-2" d="M215.88,235.32a5.56,5.56,0,0,0-.25.82l3.58-.95c-.36-.32-.72-.63-1.1-.93l-1.51,3.66,1.18.09.17,0a1.55,1.55,0,0,0,.82-.19,1.58,1.58,0,0,0,.69-.44,2.45,2.45,0,0,0,.63-1.52l-.08-.56a2.07,2.07,0,0,0-.55-.95L219,234a2.1,2.1,0,0,0-1.08-.3l-1.18-.09-.17,0-.57.08-.51.22-.44.33a1.58,1.58,0,0,0-.44.69,1,1,0,0,0-.15.54,1.1,1.1,0,0,0,0,.57,1,1,0,0,0,.15.54,1.7,1.7,0,0,0,.44.69c.38.3.74.61,1.1.93a2.17,2.17,0,0,0,.95.55,2.13,2.13,0,0,0,2.08-.55,2.07,2.07,0,0,0,.55-.95,6,6,0,0,1,.25-.82,1.64,1.64,0,0,0,0-.85,1.67,1.67,0,0,0-.25-.8,2.46,2.46,0,0,0-1.28-1l-.57-.08a2,2,0,0,0-1.08.3l-.44.33A2.17,2.17,0,0,0,215.88,235.32Z"/><path class="cls-2" d="M244.14,87.32c-.15-1.95,1.9-3,3.57-3.34a13.49,13.49,0,0,1,7.55,1.14,86.68,86.68,0,0,1,8.59,4.5c5.83,3.15,11.7,6.24,17.54,9.37,2.34,1.25,4.7,2.48,7,3.79s4.56-2.33,2.16-3.69c-5.5-3.13-11.15-6-16.73-9-2.87-1.53-5.74-3-8.59-4.61-3.68-2-7.28-4.27-11.36-5.35a14.1,14.1,0,0,0-9.44.43c-2.61,1.19-4.81,3.73-4.58,6.74.2,2.73,4.48,2.75,4.28,0Z"/><path class="cls-2" d="M217.63,84.34c-3.94-7-13.65-5.93-20.13-3.92a209.08,209.08,0,0,0-20.59,8.13q-5.5,2.37-11,4.84a2.15,2.15,0,0,0-.77,2.93,2.18,2.18,0,0,0,2.93.77c6.3-2.85,12.64-5.63,19-8.24,5.49-2.24,11.32-5,17.29-5.52,3.38-.31,7.62-.14,9.49,3.17,1.36,2.4,5.06.25,3.7-2.16Z"/><path class="cls-1" d="M250.1,204.25A39.85,39.85,0,0,0,275.22,202"/><path class="cls-2" d="M249.53,206.31a42.59,42.59,0,0,0,26.77-2.5,2.15,2.15,0,0,0,.77-2.92,2.19,2.19,0,0,0-2.93-.77,37.81,37.81,0,0,1-23.47,2.07c-2.68-.63-3.82,3.5-1.14,4.12Z"/><path class="cls-1" d="M170.54,187.65a18.33,18.33,0,0,0,17.4,2.9"/><path class="cls-2" d="M169,189.16a20.57,20.57,0,0,0,19.47,3.46A2.2,2.2,0,0,0,190,190a2.16,2.16,0,0,0-2.63-1.49,16.2,16.2,0,0,1-15.31-2.36,2.21,2.21,0,0,0-3,0,2.15,2.15,0,0,0,0,3Z"/><path class="cls-1" d="M312.47,385.89a17.94,17.94,0,0,1-8.2,17.42"/><path class="cls-2" d="M310,385.89a16.17,16.17,0,0,1,.16,2.41c0,.38,0,.76,0,1.14l-.06.63c0,.27.05-.22,0,.22a19.07,19.07,0,0,1-.55,2.35q-.17.54-.36,1.08s-.25.63-.16.41-.19.41-.18.4a15.1,15.1,0,0,1-5.74,6.62,2.57,2.57,0,0,0-.9,3.43,2.53,2.53,0,0,0,3.42.89A20.45,20.45,0,0,0,315,385.89a2.58,2.58,0,0,0-2.5-2.5c-1.21,0-2.68,1.15-2.5,2.5Z"/><path class="cls-3" d="M336.56,391.75c.36-4.12,5-6.94,9.1-6.2s7.22,4.23,8.62,8.12,1.32,8.14,1,12.25a46.81,46.81,0,0,1-2.15,11.64,17.46,17.46,0,0,1-4.61,7.44,16.58,16.58,0,0,1-5.88,3.19c-4.3,1.43-9.29,1.62-13.13-.78s-5.84-7.93-3.38-11.73Z"/><path class="cls-2" d="M339.06,391.75c.38-3.33,5-4.46,7.67-3.29,4,1.77,5.82,6.47,6.15,10.56a46.56,46.56,0,0,1-1.73,16.52,18.19,18.19,0,0,1-3,6.25,12.59,12.59,0,0,1-5.77,3.86c-3.81,1.33-9,2-12.29-.91a7.46,7.46,0,0,1-2.49-4.44,5.32,5.32,0,0,1,.72-3.42c1.81-3.69,3.3-7.57,4.94-11.33L338.72,393a2.58,2.58,0,0,0-.9-3.42,2.51,2.51,0,0,0-3.42.9l-5.56,12.76-3.62,8.29a46.63,46.63,0,0,0-2.31,5.24c-1.42,4.94,1.35,10.49,5.68,13,5.15,3,11.63,2.26,16.89,0,5.75-2.47,9-7.49,10.63-13.36a53.09,53.09,0,0,0,1.59-9.54,43,43,0,0,0-.06-9.88c-.86-6-4.62-12.36-11-13.78-5.83-1.3-11.93,2.5-12.62,8.54a2.52,2.52,0,0,0,2.5,2.5A2.55,2.55,0,0,0,339.06,391.75Z"/><path class="cls-1" d="M334.27,392.67a10.91,10.91,0,0,1,7.66,9.27,13.75,13.75,0,0,1-.16,3.53,10.4,10.4,0,0,1-12.17,8.34c-28.32-5.28-55.77-21.11-73.43-43.72a29.12,29.12,0,0,1-2-2.84c-3.52-5.89-8.26-12.72-10.72-18.86-2.2-5.48-4.11-11.35-3.3-17.2a18.9,18.9,0,0,1,11.53-14.84A17.47,17.47,0,0,1,270,320.06c4.47,4.47,6,11,7.27,17.21l3.07,14.61v-.5c3.07,15.59,15.79,25.33,29.52,31.77A219.91,219.91,0,0,0,334.27,392.67Z"/><path class="cls-2" d="M333.61,395.08a8.57,8.57,0,0,1,5.64,5.93,8.67,8.67,0,0,1-2.19,8.24,8.15,8.15,0,0,1-7.38,2c-3.58-.68-7.14-1.54-10.65-2.55a124.54,124.54,0,0,1-39.29-19.31A113.36,113.36,0,0,1,263.57,375a60.23,60.23,0,0,1-6.85-8.43c-2.14-3.4-4.27-6.81-6.33-10.26a65.66,65.66,0,0,1-5.25-10.51c-1.47-3.92-2.72-8-2.63-12.26.15-6.33,4.16-12.66,10.23-14.87s13.36-.3,17.09,5.09a29.67,29.67,0,0,1,4.06,9.93c1,4.08,1.78,8.21,2.65,12.32l1.38,6.57c.59,2.8,4.91,2.12,4.91-.66v-.5l-4.91.66a40.82,40.82,0,0,0,13.63,22.48c7.2,6.25,15.73,10.4,24.45,14.05q8.67,3.62,17.61,6.51c3.07,1,4.38-3.83,1.33-4.82a172.63,172.63,0,0,1-28.07-11.39c-7.11-3.79-14-8.67-18.65-15.35a34,34,0,0,1-5.48-12.81c-.57-2.8-4.91-2.1-4.91.67v.5l4.91-.66q-1.56-7.41-3.11-14.81a56.21,56.21,0,0,0-3.48-11.65,20,20,0,0,0-19-12,20.65,20.65,0,0,0-18,12.93c-3.6,8.57-.6,18.22,3.16,26.22a113.54,113.54,0,0,0,6.57,11.49,97.82,97.82,0,0,0,7.37,10.79,112.92,112.92,0,0,0,17.25,16.75,129.57,129.57,0,0,0,43.42,22.42,116.29,116.29,0,0,0,11.62,2.81,13.32,13.32,0,0,0,10.8-2.31c6.46-4.93,6.89-15.31.71-20.67a15.15,15.15,0,0,0-5.12-2.91C331.89,389.22,330.58,394.05,333.61,395.08Z"/><path class="cls-3" d="M92.27,510.28c-.71-9-5.31-17.43-11.94-23.51a48.82,48.82,0,0,0-24-11.56c-13.94-2.63-28.9,1.43-38.58,11.81"/><path class="cls-2" d="M94.77,510.28C92.37,482,59.42,466,34,474.05A42.16,42.16,0,0,0,16,485.25c-2.21,2.34,1.32,5.89,3.53,3.54,16.62-17.66,47.58-14.63,62.68,3.54a32.91,32.91,0,0,1,7.59,17.95,2.55,2.55,0,0,0,2.5,2.5,2.53,2.53,0,0,0,2.5-2.5Z"/><path class="cls-3" d="M85.65,487.92c1.08-1.24,2.89-1.51,4.53-1.58,8.25-.37,16.81,2.55,22.39,8.63s7.69,15.47,4.33,23"/><path class="cls-2" d="M87.42,489.69c.88-.91,2.35-.86,3.53-.88a28,28,0,0,1,4.76.28,27.35,27.35,0,0,1,9.26,3.08,21.21,21.21,0,0,1,10.75,14.61,17.33,17.33,0,0,1-1,9.94,2.59,2.59,0,0,0,.9,3.42,2.52,2.52,0,0,0,3.42-.89,24.16,24.16,0,0,0-2.14-22.72c-4.43-6.76-12-11-19.88-12.26-4.08-.64-10-1.41-13.16,1.88-2.23,2.32,1.3,5.86,3.54,3.54Z"/><path class="cls-3" d="M103,458.38a52.46,52.46,0,0,1,19.19,14.85"/><path class="cls-2" d="M101.7,460.54A51.26,51.26,0,0,1,120.38,475a2.52,2.52,0,0,0,3.54,0,2.56,2.56,0,0,0,0-3.53,54.56,54.56,0,0,0-19.7-15.25,2.57,2.57,0,0,0-3.42.9,2.52,2.52,0,0,0,.9,3.42Z"/><path class="cls-3" d="M17.74,487q-1.05,1.25-2,2.58"/><path class="cls-2" d="M16,485.26c-.84,1-1.63,2-2.37,3.08a2,2,0,0,0-.3.93,1.89,1.89,0,0,0,0,1,1.83,1.83,0,0,0,.44.85,1.87,1.87,0,0,0,.7.64,2.56,2.56,0,0,0,1.93.26l.6-.26a2.64,2.64,0,0,0,.9-.89c.32-.48.66-.94,1-1.39l-.4.5,1-1.19A1.77,1.77,0,0,0,20,488a2.23,2.23,0,0,0,0-1.93,1.77,1.77,0,0,0-.52-.8,2.49,2.49,0,0,0-1.76-.74l-.67.09a2.52,2.52,0,0,0-1.1.65Z"/><path class="cls-2" d="M210.35,243.09a42.11,42.11,0,0,0-8,.85,23.76,23.76,0,0,0-7.53,2.49,2.17,2.17,0,0,0,0,3.7,52.56,52.56,0,0,1,8.44,7.92,2.14,2.14,0,0,0,3-3,56.57,56.57,0,0,0-9.31-8.59v3.7a7.55,7.55,0,0,1,.69-.37l.3-.14s.49-.22.21-.1.25-.09.25-.09l.34-.13c.3-.11.61-.21.91-.3a35.31,35.31,0,0,1,3.81-.94c.62-.11,1.25-.22,1.87-.31l.34-.05.32,0,.9-.1a32.85,32.85,0,0,1,3.43-.19,2.14,2.14,0,1,0,0-4.28Z"/><path class="cls-2" d="M306.16,382.7a33.44,33.44,0,0,1-4.85,18.65c-1.67,2.76,2.65,5.27,4.32,2.53a38.32,38.32,0,0,0,5.53-21.18,2.5,2.5,0,0,0-5,0Z"/><path class="cls-3" d="M91.93,502.44a35.26,35.26,0,0,1,27.18,41.64c-.74,3.57-2.07,8.15-4.71,10.66"/><path class="cls-2" d="M91.27,504.85a32.75,32.75,0,0,1,25.81,36.34c-.5,3.93-1.53,8.89-4.45,11.78-2.28,2.27,1.25,5.81,3.54,3.54,3.2-3.18,4.6-7.86,5.43-12.18a38.54,38.54,0,0,0,0-14.83A37.91,37.91,0,0,0,92.6,500c-3.14-.68-4.48,4.14-1.33,4.83Z"/><path class="cls-3" d="M114.41,554.73a22.24,22.24,0,0,1-.77,4.74,10,10,0,0,1-3.17,4.83,10.38,10.38,0,0,1-2,1.38c-8.37,4.41-17.78,6.65-27,4.55-10.53-2.39-19.89-11.35-20.57-22.13-10.71-3.35-22.51-3.24-32.51-8.32A34.26,34.26,0,0,1,15.76,489.6c.72-1,3.41-2.65,4.1-3.08C25.5,483,32.68,483,39.23,484.17,62.43,488.42,82.07,509,87.58,532a2.75,2.75,0,0,0,2,2,43.08,43.08,0,0,1,14.63,6.53A26.21,26.21,0,0,1,114.41,554.73Z"/><path class="cls-2" d="M111.91,554.73a13.17,13.17,0,0,1-1.56,6c-1.2,1.91-3.22,2.89-5.19,3.82a39.67,39.67,0,0,1-14,3.91c-8.66.62-17.12-2.3-22.86-8.94a19.85,19.85,0,0,1-4.9-11.4,2.63,2.63,0,0,0-1.84-2.41c-7.67-2.36-15.72-3-23.48-5-7-1.81-13.19-5.06-18-10.51a31.52,31.52,0,0,1-7.83-18.28,32.56,32.56,0,0,1,1.05-11,31.77,31.77,0,0,1,1.89-5.21,23.15,23.15,0,0,1,2.6-4.57A12.11,12.11,0,0,1,20.66,489a18.08,18.08,0,0,1,4.25-2,27.06,27.06,0,0,1,10.86-.76,50,50,0,0,1,18.76,6.2,64.61,64.61,0,0,1,26.72,29.06,58.59,58.59,0,0,1,3.37,9.14c.5,1.79.78,3.57,2.29,4.83s3.89,1.53,5.78,2.16c7,2.33,13.59,6.47,17.31,13a20.75,20.75,0,0,1,2,4.85c.84,3.1,5.67,1.78,4.82-1.33-2.17-7.92-8.09-14.22-15.21-18.08a47.9,47.9,0,0,0-5.94-2.67c-1-.35-1.92-.68-2.9-1-.49-.15-1-.29-1.47-.42a6.54,6.54,0,0,1-1.12-.26c-.37-.24-.43-1.28-.55-1.72-.23-.88-.48-1.75-.76-2.62q-.8-2.52-1.8-5a70.1,70.1,0,0,0-27.81-33,56.9,56.9,0,0,0-19.77-7.65,39.29,39.29,0,0,0-12.57-.34,24.13,24.13,0,0,0-10,4.07,12.44,12.44,0,0,0-3.71,3.44,34.13,34.13,0,0,0-2.86,5.24,38.83,38.83,0,0,0-3.14,12,36.16,36.16,0,0,0,5.29,22.31A37.21,37.21,0,0,0,29.41,543c7.87,3.36,16.41,4.14,24.7,5.92,2,.44,4.07.95,6.07,1.57l-1.83-2.42c.7,9.77,7.37,18.15,16.07,22.3,10.4,4.94,22.24,3.46,32.45-1.17,3-1.35,5.7-2.92,7.58-5.67,1.77-2.6,2.21-5.76,2.46-8.83a2.5,2.5,0,0,0-5,0Z"/><path class="cls-3" d="M11.93,497.38c6.93-4.16,15.81-2.93,23.46-.32a76.37,76.37,0,0,1,45.33,42.78,4.54,4.54,0,0,0,2.69,2.58c10.54,3.66,27.06,11,27.06,21.89"/><path class="cls-2" d="M13.19,499.54c7.92-4.63,18-1.74,25.85,1.56A73,73,0,0,1,60.3,514.87,74.37,74.37,0,0,1,75.71,535c1,1.81,1.81,3.65,2.6,5.53a7.71,7.71,0,0,0,5,4.52,90.21,90.21,0,0,1,9.91,4.1,41.6,41.6,0,0,1,10.33,6.74,16,16,0,0,1,3.24,4,9.5,9.5,0,0,1,1.21,4.43c0,3.21,5,3.22,5,0-.1-8-6.89-13.62-13.22-17.34a79.48,79.48,0,0,0-11.15-5.29l-2.47-.94a10.15,10.15,0,0,1-2.4-.94,4.5,4.5,0,0,1-1.21-2.09c-.47-1.1-1-2.18-1.48-3.25a78.88,78.88,0,0,0-38.1-37.08c-9.85-4.43-22.24-8-32.27-2.16-2.78,1.62-.27,5.95,2.52,4.32Z"/><path class="cls-1" d="M424.25,188.92l-20.38-10.14c-35.49,25.1-72.3,57.77-91.05,97,0,0-3.34,6.92,5,10.34l.25.1a14.65,14.65,0,0,0,18.7-7.57c7.57-16.33,20-30.34,33.36-42.56,16.1-14.66,38.56-31.94,54.14-47.16"/><path class="cls-2" d="M425.51,186.76l-17.8-8.86-2.58-1.28a2.5,2.5,0,0,0-2.52,0,398.92,398.92,0,0,0-48.41,39.72c-14.87,14.51-28.43,30.68-38.67,48.83-1.23,2.18-2.41,4.38-3.53,6.62a32.37,32.37,0,0,0-1.77,3.77,9.88,9.88,0,0,0,.55,7.86c2.13,4,7.06,5.89,11.33,6.28a17.23,17.23,0,0,0,12.42-4.1c3.78-3.15,5.33-8,7.67-12.13A111.8,111.8,0,0,1,351.15,260a174.19,174.19,0,0,1,21.58-22.87c15.67-14.18,32.48-27.05,48-41.39q2.67-2.46,5.28-5c2.3-2.25-1.23-5.79-3.54-3.54-14.62,14.27-30.81,26.82-46.24,40.18s-30.16,27.86-39.67,46a57.07,57.07,0,0,1-3.3,6.3,12.15,12.15,0,0,1-4.29,3.7,12,12,0,0,1-10.66.26,6.3,6.3,0,0,1-3.38-3.05c.19.43-.11-.35-.14-.46l-.09-.42c-.17-.64,0,.35,0,0a8.43,8.43,0,0,1,0-.87c0-.21.15-1.12,0-.38a11,11,0,0,1,.26-1.17c.13-.43.16-1.07,0-.16a8.8,8.8,0,0,1,1-2.05c.57-1.14,1.16-2.28,1.76-3.42C327,254,339.5,238.35,353.39,224.2a366.36,366.36,0,0,1,45.8-39q3-2.16,5.94-4.27h-2.52l17.79,8.85,2.59,1.29c2.87,1.43,5.4-2.88,2.52-4.32Z"/><path class="cls-2" d="M193.73,117.91c-2-3.1-4.75-6.24-8.42-6.46s-6.73,2.49-8.95,5.35A34.59,34.59,0,0,0,170,144.31c5.08,1.05,10.14,1.82,15,2.72-5.24,4.52-9.8,7.53-16.06,12.05a21.67,21.67,0,0,0,9.94,14.72,12.08,12.08,0,0,0,4.36,1.73c6.23,1,11.33-4.95,13.91-10.69A50.55,50.55,0,0,0,193.73,117.91Z"/><path class="cls-2" d="M195.71,116.76c-2-3-4.44-6-8-7.16-3.72-1.25-7.45.28-10.3,2.7-5.53,4.71-8.83,12.52-9.88,19.56a39.76,39.76,0,0,0,.24,13.06,2.2,2.2,0,0,0,1.6,1.6c5,1,10,1.79,15,2.72l-1-3.83c-4.94,4.24-10.32,7.89-15.6,11.7a2.42,2.42,0,0,0-1.05,2.58,24.08,24.08,0,0,0,10,15.47,13.36,13.36,0,0,0,9.53,2.62,14.25,14.25,0,0,0,7.69-4.21c4.48-4.46,6.89-10.81,8.29-16.86a53.86,53.86,0,0,0,.83-19.56,51.58,51.58,0,0,0-7.4-20.39c-1.57-2.49-5.53-.2-4,2.31a48.32,48.32,0,0,1,6.86,32.48c-.78,5.43-2.38,11.11-5.4,15.74-2.6,4-7,7.6-11.85,5.26-5.5-2.63-9.15-8.18-10.21-14.07l-1.05,2.58c5.59-4,11.29-7.91,16.52-12.41a2.3,2.3,0,0,0-1-3.83c-5-.92-10-1.7-15-2.71l1.6,1.6a32.84,32.84,0,0,1,3.92-22.5c1.74-2.92,4.21-6.51,7.72-7.36s6.24,2.64,7.9,5.22S197.31,119.24,195.71,116.76Z"/><path class="cls-1" d="M286.94,181.62c-3.55,5.69-8.58,10.64-14.84,13s-13.82,1.89-19.11-2.23c-8.79-6.84-8.51-20-7.41-31.05,1.64-16.46,3.28-34,4.91-50.52a13.51,13.51,0,0,0,1.93,1.55c3.76,2.5,8.31,3.44,12.54,5,12.15,4.48,20.81,6,30,15.13C300,137.64,293.79,170.64,286.94,181.62Z"/><path class="cls-2" d="M285.09,180.54c-3.91,6.2-9.72,11.61-17.1,13.08-6.77,1.34-13.89-1.16-17.49-7.2-3.41-5.71-3.56-12.85-3.23-19.3.43-8.5,1.56-17,2.37-25.45q1.49-15.4,3-30.81L249,112.38c3.41,3.19,7.85,4.61,12.2,6,4.05,1.3,8.06,2.79,12.08,4.17,7.25,2.49,14,5.52,19.58,10.91.26.24.5.5.75.74s-.22-.43,0,0l.22.38c.3.52,0-.1.08.18a16.25,16.25,0,0,1,.61,2.59c-.07-.46,0,.3,0,.4s.05.48.06.73c.05.62.07,1.25.08,1.87,0,1.33,0,2.65-.1,4a104.57,104.57,0,0,1-3,18.6c-1.5,6-3.2,12.3-6.44,17.55-1.45,2.36,2.25,4.51,3.7,2.17,3-4.9,4.77-10.68,6.25-16.2a116.62,116.62,0,0,0,3.64-20,50,50,0,0,0,.18-8.12,14.86,14.86,0,0,0-1.45-6.12,12.48,12.48,0,0,0-2.74-3,46.07,46.07,0,0,0-5.19-4,53,53,0,0,0-10.4-5.16c-4.28-1.65-8.66-3-13-4.55-4.73-1.72-10.34-2.68-14.12-6.23a2.17,2.17,0,0,0-3.65,1.51q-1.46,14.69-2.85,29.36c-.87,9-2.08,18-2.52,27.08-.35,7.2.06,15.1,3.91,21.42a20.39,20.39,0,0,0,19.94,9.37c9.47-1.07,17-7.56,22-15.38C290.26,180.37,286.56,178.22,285.09,180.54Z"/><path class="cls-1" d="M250.49,110.86c-2.72-2.63-4.41-6.43-3.21-9.93"/><path class="cls-2" d="M252,109.35c-.32-.32-.64-.65-.93-1l-.2-.25c-.2-.22.21.3,0,.06s-.25-.35-.37-.52c-.25-.37-.48-.76-.69-1.15l-.27-.57c-.12-.25,0,0,0,.09a1.2,1.2,0,0,1-.13-.36,9.9,9.9,0,0,1-.34-1.18l-.06-.3c0-.06-.06-.41,0-.08s0-.09,0-.17,0-.2,0-.3c0-.39.09-.82.05-1.2,0,.21-.06.37,0,0,0-.1,0-.2.07-.3s.12-.45.19-.67a2.16,2.16,0,0,0-1.49-2.63,2.2,2.2,0,0,0-2.64,1.5c-1.44,4.35.64,9,3.76,12a2.14,2.14,0,1,0,3-3Z"/><path class="cls-2" d="M201.14,99.84c.15,0,.23.16.27.39a2.47,2.47,0,0,1,0,1.32c-.39,1.22-1.67,1.58-2.81,1.86-1.79.43-3.51.82-5.26,1.41-2,.65-4,1.26-5.95,1.85-6.4,1.89-13,3.7-18.92,6.77-2.48,1.28-5,2.9-5.78,5.76-.45,1.69,0,3.32.23,5,.31,2.08.44,4.21.65,6.3.85,8.2,1.74,16.39,2.81,24.56,1,7.74,1.73,15.89,8,21.39a20,20,0,0,0,19.82,4c7.42-2.61,11.71-8.9,14.09-16.11a79.33,79.33,0,0,0,3.5-19.26,100,100,0,0,0-.62-20.39,63.81,63.81,0,0,0-4.94-18.25,37.06,37.06,0,0,0-1.92-3.63c-1.42-2.35-5.12-.2-3.7,2.17a48.38,48.38,0,0,1,5.67,16,92,92,0,0,1,1.46,19.18,86.89,86.89,0,0,1-2.28,18.45c-1.58,6.46-4.07,13.34-10.25,16.7a15.72,15.72,0,0,1-17.81-2c-5.74-5.07-6-13-6.93-20.14-1-7.9-1.86-15.82-2.67-23.74-.22-2.09-.36-4.2-.68-6.28-.21-1.34-.64-2.59.15-3.81a6.22,6.22,0,0,1,.65-.65,12.88,12.88,0,0,1,1.52-1,37.18,37.18,0,0,1,3.74-1.86c6.16-2.69,12.72-4.28,19.11-6.29,1.81-.56,3.59-1.29,5.44-1.69a15.77,15.77,0,0,0,5-1.54,6.55,6.55,0,0,0,2.8-7.71,4.92,4.92,0,0,0-3.14-3c-2.61-.91-3.73,3.23-1.13,4.13Z"/><path class="cls-2" d="M421.55,101.15c9.27,11.22,17.14,25.9,15,40.92a2.59,2.59,0,0,0,1.74,3.08,2.53,2.53,0,0,0,3.08-1.75c2.46-17-5.68-33-16.26-45.78a2.51,2.51,0,0,0-3.53,0,2.55,2.55,0,0,0,0,3.53Z"/><path class="cls-2" d="M274.55,127.15c-2.88-4.68-8.06-9.13-13.32-7.51-4,1.22-6.16,5.41-7.5,9.33a57.3,57.3,0,0,0-3,20.57h0c4.37.76,8.58,1.61,12.77,2.46-5.42,4.68-10.71,9.52-16.22,13.26a14.78,14.78,0,0,0,20.32,20.26c4.84-2.92,7.59-8.31,9.5-13.64C282.28,157.34,282.67,140.3,274.55,127.15Z"/><path class="cls-2" d="M276.56,126c-3.61-5.74-10.42-11.31-17.48-8-2.87,1.36-4.9,4.13-6.21,6.93a46.63,46.63,0,0,0-3.35,10.82,60.66,60.66,0,0,0-1.13,13.78,2.36,2.36,0,0,0,1.7,2.24c4.27.75,8.52,1.59,12.77,2.45l-1-3.88c-3.89,3.37-7.71,6.82-11.76,10-1.81,1.42-4.3,2.58-5.34,4.7a17.89,17.89,0,0,0-1.69,6,17,17,0,0,0,12.5,18.29c19.55,5,26.57-20.26,27.5-34.78.63-9.88-1.3-20-6.49-28.52-1.56-2.55-5.57-.22-4,2.34,7,11.45,7.27,25.63,3.77,38.28-1.59,5.71-3.8,12.26-8.64,16.06a13,13,0,0,1-15.28.12c-5-3.65-6.16-11.09-3.14-16.35l-.83.84c5.94-4.07,11.26-8.94,16.69-13.63a2.33,2.33,0,0,0-1-3.88c-4.25-.86-8.5-1.71-12.78-2.46l1.71,2.24a55.34,55.34,0,0,1,1-12.78c.75-3.76,1.72-7.75,3.68-11.09,1.48-2.53,3.93-4.64,7-3.9,3.38.81,6,3.72,7.78,6.55C274.14,130.85,278.16,128.52,276.56,126Z"/></svg>